<svg width="30" height="30" viewBox="0 0 30 30" fill="none" xmlns="http://www.w3.org/2000/svg">
<path d="M15 30C6.7155 30 0 23.2845 0 15C0 6.7155 6.7155 0 15 0C23.2845 0 30 6.7155 30 15C30 23.2845 23.2845 30 15 30ZM4.9935 21.6375C5.97943 23.1126 7.2802 24.3508 8.80215 25.2628C10.3241 26.1748 12.0294 26.7379 13.7951 26.9117C15.5609 27.0855 17.3432 26.8655 19.0137 26.2677C20.6842 25.6698 22.2014 24.709 23.456 23.4543C24.7105 22.1996 25.6712 20.6824 26.2689 19.0118C26.8666 17.3412 27.0864 15.5589 26.9125 13.7931C26.7386 12.0274 26.1753 10.3222 25.2631 8.80033C24.351 7.27846 23.1127 5.97779 21.6375 4.992C22.2843 7.29934 22.305 9.73728 21.6977 12.0553C21.0903 14.3733 19.8767 16.4878 18.1815 18.1815C16.488 19.8764 14.3737 21.0899 12.056 21.6972C9.73826 22.3046 7.30062 22.284 4.9935 21.6375Z" fill="white"/>
</svg>
